<svg id="visual" viewBox="0 0 1920.183 1075.636" width="1920.183" height="1075.636" xmlns="http://www.w3.org/2000/svg" xmlns:xlink="http://www.w3.org/1999/xlink" version="1.1"><rect x="0" y="0" width="1920.183" height="1075.636" fill="#001220"></rect><defs><linearGradient id="grad1_0" x1="44%" y1="0%" x2="100%" y2="100%"><stop offset="14.296788132788416%" stop-color="#c62368" stop-opacity="1"></stop><stop offset="85.70321186721158%" stop-color="#c62368" stop-opacity="1"></stop></linearGradient></defs><defs><linearGradient id="grad1_1" x1="44%" y1="0%" x2="100%" y2="100%"><stop offset="14.296788132788416%" stop-color="#c62368" stop-opacity="1"></stop><stop offset="85.70321186721158%" stop-color="#a52770" stop-opacity="1"></stop></linearGradient></defs><defs><linearGradient id="grad1_2" x1="44%" y1="0%" x2="100%" y2="100%"><stop offset="14.296788132788416%" stop-color="#802c72" stop-opacity="1"></stop><stop offset="85.70321186721158%" stop-color="#a52770" stop-opacity="1"></stop></linearGradient></defs><defs><linearGradient id="grad1_3" x1="44%" y1="0%" x2="100%" y2="100%"><stop offset="14.296788132788416%" stop-color="#802c72" stop-opacity="1"></stop><stop offset="85.70321186721158%" stop-color="#5c2e6b" stop-opacity="1"></stop></linearGradient></defs><defs><linearGradient id="grad1_4" x1="44%" y1="0%" x2="100%" y2="100%"><stop offset="14.296788132788416%" stop-color="#3a2b5e" stop-opacity="1"></stop><stop offset="85.70321186721158%" stop-color="#5c2e6b" stop-opacity="1"></stop></linearGradient></defs><defs><linearGradient id="grad1_5" x1="44%" y1="0%" x2="100%" y2="100%"><stop offset="14.296788132788416%" stop-color="#3a2b5e" stop-opacity="1"></stop><stop offset="85.70321186721158%" stop-color="#1d254c" stop-opacity="1"></stop></linearGradient></defs><defs><linearGradient id="grad1_6" x1="44%" y1="0%" x2="100%" y2="100%"><stop offset="14.296788132788416%" stop-color="#081d36" stop-opacity="1"></stop><stop offset="85.70321186721158%" stop-color="#1d254c" stop-opacity="1"></stop></linearGradient></defs><defs><linearGradient id="grad1_7" x1="44%" y1="0%" x2="100%" y2="100%"><stop offset="14.296788132788416%" stop-color="#081d36" stop-opacity="1"></stop><stop offset="85.70321186721158%" stop-color="#001220" stop-opacity="1"></stop></linearGradient></defs><defs><linearGradient id="grad2_0" x1="0%" y1="0%" x2="56%" y2="100%"><stop offset="14.296788132788416%" stop-color="#c62368" stop-opacity="1"></stop><stop offset="85.70321186721158%" stop-color="#c62368" stop-opacity="1"></stop></linearGradient></defs><defs><linearGradient id="grad2_1" x1="0%" y1="0%" x2="56%" y2="100%"><stop offset="14.296788132788416%" stop-color="#a52770" stop-opacity="1"></stop><stop offset="85.70321186721158%" stop-color="#c62368" stop-opacity="1"></stop></linearGradient></defs><defs><linearGradient id="grad2_2" x1="0%" y1="0%" x2="56%" y2="100%"><stop offset="14.296788132788416%" stop-color="#a52770" stop-opacity="1"></stop><stop offset="85.70321186721158%" stop-color="#802c72" stop-opacity="1"></stop></linearGradient></defs><defs><linearGradient id="grad2_3" x1="0%" y1="0%" x2="56%" y2="100%"><stop offset="14.296788132788416%" stop-color="#5c2e6b" stop-opacity="1"></stop><stop offset="85.70321186721158%" stop-color="#802c72" stop-opacity="1"></stop></linearGradient></defs><defs><linearGradient id="grad2_4" x1="0%" y1="0%" x2="56%" y2="100%"><stop offset="14.296788132788416%" stop-color="#5c2e6b" stop-opacity="1"></stop><stop offset="85.70321186721158%" stop-color="#3a2b5e" stop-opacity="1"></stop></linearGradient></defs><defs><linearGradient id="grad2_5" x1="0%" y1="0%" x2="56%" y2="100%"><stop offset="14.296788132788416%" stop-color="#1d254c" stop-opacity="1"></stop><stop offset="85.70321186721158%" stop-color="#3a2b5e" stop-opacity="1"></stop></linearGradient></defs><defs><linearGradient id="grad2_6" x1="0%" y1="0%" x2="56%" y2="100%"><stop offset="14.296788132788416%" stop-color="#1d254c" stop-opacity="1"></stop><stop offset="85.70321186721158%" stop-color="#081d36" stop-opacity="1"></stop></linearGradient></defs><defs><linearGradient id="grad2_7" x1="0%" y1="0%" x2="56%" y2="100%"><stop offset="14.296788132788416%" stop-color="#001220" stop-opacity="1"></stop><stop offset="85.70321186721158%" stop-color="#081d36" stop-opacity="1"></stop></linearGradient></defs><g transform="translate(1920.183, 0)"><path d="M0 1075.6C-175.2 1026.9 -350.3 978.1 -516.5 894.6C-682.7 811.1 -839.8 692.7 -931.5 537.8C-1023.2 382.9 -1049.4 191.5 -1075.6 0L0 0Z" fill="#04182b"></path><path d="M0 941.2C-153.3 898.5 -306.5 855.9 -451.9 782.8C-597.3 709.7 -734.9 606.1 -815.1 470.6C-895.3 335.1 -918.2 167.5 -941.2 0L0 0Z" fill="#112141"></path><path d="M0 806.7C-131.4 770.2 -262.7 733.6 -387.4 671C-512 608.3 -629.9 519.5 -698.6 403.4C-767.4 287.2 -787.1 143.6 -806.7 0L0 0Z" fill="#2b2956"></path><path d="M0 672.3C-109.5 641.8 -219 611.3 -322.8 559.1C-426.7 506.9 -524.9 432.9 -582.2 336.1C-639.5 239.3 -655.9 119.7 -672.3 0L0 0Z" fill="#4b2d66"></path><path d="M0 537.8C-87.6 513.4 -175.2 489.1 -258.2 447.3C-341.3 405.5 -419.9 346.4 -465.8 268.9C-511.6 191.5 -524.7 95.7 -537.8 0L0 0Z" fill="#6e2d6f"></path><path d="M0 403.4C-65.7 385.1 -131.4 366.8 -193.7 335.5C-256 304.1 -314.9 259.8 -349.3 201.7C-383.7 143.6 -393.5 71.8 -403.4 0L0 0Z" fill="#932a72"></path><path d="M0 268.9C-43.8 256.7 -87.6 244.5 -129.1 223.7C-170.7 202.8 -210 173.2 -232.9 134.5C-255.8 95.7 -262.4 47.9 -268.9 0L0 0Z" fill="#b6246d"></path><path d="M0 134.5C-21.9 128.4 -43.8 122.3 -64.6 111.8C-85.3 101.4 -105 86.6 -116.4 67.2C-127.9 47.9 -131.2 23.9 -134.5 0L0 0Z" fill="#c62368"></path></g><g transform="translate(0, 1075.636)"><path d="M0 -1075.6C206 -1057.8 412 -1040 537.8 -931.5C663.6 -823 709.2 -623.9 785.5 -453.5C861.8 -283.1 968.7 -141.6 1075.6 0L0 0Z" fill="#04182b"></path><path d="M0 -941.2C180.3 -925.6 360.5 -910 470.6 -815.1C580.7 -720.2 620.6 -545.9 687.3 -396.8C754 -247.7 847.6 -123.9 941.2 0L0 0Z" fill="#112141"></path><path d="M0 -806.7C154.5 -793.4 309 -780 403.4 -698.6C497.7 -617.3 531.9 -467.9 589.1 -340.1C646.3 -212.3 726.5 -106.2 806.7 0L0 0Z" fill="#2b2956"></path><path d="M0 -672.3C128.8 -661.1 257.5 -650 336.1 -582.2C414.8 -514.4 443.3 -389.9 490.9 -283.4C538.6 -177 605.4 -88.5 672.3 0L0 0Z" fill="#4b2d66"></path><path d="M0 -537.8C103 -528.9 206 -520 268.9 -465.8C331.8 -411.5 354.6 -311.9 392.7 -226.8C430.9 -141.6 484.3 -70.8 537.8 0L0 0Z" fill="#6e2d6f"></path><path d="M0 -403.4C77.3 -396.7 154.5 -390 201.7 -349.3C248.9 -308.6 266 -234 294.6 -170.1C323.2 -106.2 363.3 -53.1 403.4 0L0 0Z" fill="#932a72"></path><path d="M0 -268.9C51.5 -264.5 103 -260 134.5 -232.9C165.9 -205.8 177.3 -156 196.4 -113.4C215.4 -70.8 242.2 -35.4 268.9 0L0 0Z" fill="#b6246d"></path><path d="M0 -134.5C25.8 -132.2 51.5 -130 67.2 -116.4C83 -102.9 88.7 -78 98.2 -56.7C107.7 -35.4 121.1 -17.7 134.5 0L0 0Z" fill="#c62368"></path></g></svg>